# xmcd
#
# Track frame offsets:
# 150
# 15503
# 29625
# 47877
# 69029
# 88102
# 109422
# 123746
#
# Disc length: 1768 seconds
#
# Revision: 1
# Processed by: cddbd v1.4PL0 Copyright (c) Steve Scherf et al.
# Submitted via: CedeCatalogueitor 2.5 http://usuarios.lycos.es/kakasboy
#
DISCID=6a06e608
DTITLE=Triana - 18 Años De Música Vol. 2 Cd 1
DYEAR=1992
DGENRE=
TTITLE0=Cae Fina La Lluvia
TTITLE1=Un Extraño Más
TTITLE2=Caudaloso Rio
TTITLE3=Un Mal Sueño
TTITLE4=Una Vez
TTITLE5=Desnuda La Mañana
TTITLE6=Como El Viento
TTITLE7=Fin
EXTD=
EXTT0=
EXTT1=
EXTT2=
EXTT3=
EXTT4=
EXTT5=
EXTT6=
EXTT7=
PLAYORDER=
